<svg id="Layer_1" data-name="Layer 1" xmlns="http://www.w3.org/2000/svg" viewBox="0 0 260.1 260.1">
  <title>facebook-logo</title>
  <path d="M410.1,200A130.1,130.1,0,1,0,259.7,328.5V237.6h-33V200h33V171.4c0-32.6,19.5-50.6,49.2-50.6a203.4,203.4,0,0,1,29.1,2.5v32H321.6c-16.2,0-21.2,10.1-21.2,20.4V200h36l-5.7,37.6H300.4v90.9A130,130,0,0,0,410.1,200Z" transform="translate(-150 -70)" fill="#1977f3" fill-rule="evenodd"/>
  <path d="M330.7,237.6l5.7-37.6h-36V175.7c0-10.3,5-20.4,21.2-20.4H338v-32a203.4,203.4,0,0,0-29.1-2.5c-29.7,0-49.2,18-49.2,50.6V200h-33v37.6h33v90.9a124.5,124.5,0,0,0,20.3,1.6,137,137,0,0,0,20.4-1.6V237.6Z" transform="translate(-150 -70)" fill="#fefefe" fill-rule="evenodd"/>
</svg>
