<svg id="Layer_1" data-name="Layer 1" xmlns="http://www.w3.org/2000/svg" viewBox="0 0 171.9 174">
  <title>linkedin-logo</title>
  <path d="M576,348.2a17.3,17.3,0,0,1-17.3,17.3H421.4a17.2,17.2,0,0,1-17.3-17.3V209a17.3,17.3,0,0,1,17.3-17.4H558.7A17.4,17.4,0,0,1,576,209Z" transform="translate(-404.1 -191.6)" fill="#069"/>
  <g>
    <path d="M460,234.1c0,6.4-4.7,11.6-12.5,11.6s-12-5.2-12-11.6,4.9-11.5,12.3-11.5S459.8,227.6,460,234.1Zm-23.9,95.1V254.8h23.1v74.4Z" transform="translate(-404.1 -191.6)" fill="#fff"/>
    <path d="M473.1,278.6c0-9.3-.3-17.1-.6-23.8h20.1l1,10.4h.5c3-4.9,10.5-12.1,23-12.1,15.2,0,26.6,10.2,26.6,32.1v44H520.6V288c0-9.6-3.4-16.1-11.8-16.1-6.3,0-10.2,4.4-11.8,8.6a17.3,17.3,0,0,0-.8,5.8v42.9H473.1Z" transform="translate(-404.1 -191.6)" fill="#fff"/>
  </g>
</svg>
