<svg id="Layer_1" data-name="Layer 1" xmlns="http://www.w3.org/2000/svg" viewBox="0 0 270 219.4">
  <title>twitter-logo</title>
  <path d="M229.9,309.7c101.9,0,157.6-84.4,157.6-157.6,0-2.4,0-4.8-.1-7.2A112,112,0,0,0,415,116.3a112.5,112.5,0,0,1-31.8,8.7,55.5,55.5,0,0,0,24.3-30.7,109.9,109.9,0,0,1-35.1,13.5,55.5,55.5,0,0,0-95.9,37.9,53,53,0,0,0,1.5,12.6,157.2,157.2,0,0,1-114.2-57.9,55.5,55.5,0,0,0,17.1,74,54.4,54.4,0,0,1-25-7,2.2,2.2,0,0,0-.1.8,55.4,55.4,0,0,0,44.5,54.3,59,59,0,0,1-14.6,1.9,50.3,50.3,0,0,1-10.4-1A55.5,55.5,0,0,0,227,261.9a111.3,111.3,0,0,1-68.8,23.7,114.1,114.1,0,0,1-13.2-.8,156.8,156.8,0,0,0,84.9,24.9" transform="translate(-145 -90.3)" fill="#1da1f2"/>
</svg>
